<?xml version="1.0"?>
<svg xmlns="http://www.w3.org/2000/svg" id="Capa_1" enable-background="new 0 0 465.882 465.882" height="512px" viewBox="0 0 465.882 465.882" width="512px"><g><path d="m232.941 0c-128.649 0-232.941 91.254-232.941 203.824 0 27.129 6.06 53.017 17.059 76.69 26.898 57.892 23.683 125.861-12.218 178.646-3.01 4.426-4.841 6.722-4.841 6.722s117.187-21.41 178.37-64.091c17.534 3.689 35.743 5.856 54.571 5.856 128.65 0 232.941-91.256 232.941-203.824 0-112.569-104.291-203.823-232.941-203.823zm-101.912 232.941c-8.04 0-14.559-6.519-14.559-14.559 0-8.042 6.519-14.559 14.559-14.559s14.559 6.517 14.559 14.559c0 8.04-6.519 14.559-14.559 14.559zm101.912 0c-8.04 0-14.559-6.519-14.559-14.559 0-8.042 6.519-14.559 14.559-14.559s14.559 6.517 14.559 14.559c0 8.04-6.519 14.559-14.559 14.559zm101.912 0c-8.04 0-14.559-6.519-14.559-14.559 0-8.042 6.519-14.559 14.559-14.559s14.559 6.517 14.559 14.559c0 8.04-6.519 14.559-14.559 14.559z" data-original="#000000" class="active-path" data-old_color="#000000" fill="#00844B"/></g> </svg>
